<svg xmlns="http://www.w3.org/2000/svg" viewBox="0 0 540 320" font-family="-apple-system, BlinkMacSystemFont, Segoe UI, sans-serif">
<text x="270" y="28" text-anchor="middle" font-size="16" font-weight="600">SEL Competency Frequency</text>
<path d="M 160 175 L 160.00 55.00 A 120 120 0 0 1 269.97 126.97 Z" fill="#5b8def" stroke="white" stroke-width="2"/>
<path d="M 160 175 L 269.97 126.97 A 120 120 0 0 1 106.99 282.66 Z" fill="#f08e3b" stroke="white" stroke-width="2"/>
<path d="M 160 175 L 106.99 282.66 A 120 120 0 0 1 58.60 239.18 Z" fill="#52b788" stroke="white" stroke-width="2"/>
<path d="M 160 175 L 58.60 239.18 A 120 120 0 0 1 110.30 65.78 Z" fill="#d36bd6" stroke="white" stroke-width="2"/>
<path d="M 160 175 L 110.30 65.78 A 120 120 0 0 1 160.00 55.00 Z" fill="#e9c46a" stroke="white" stroke-width="2"/>
<rect x="320" y="80" width="14" height="14" fill="#5b8def"/><text x="342" y="92" font-size="13" fill="#222">self-aware — 19 (18.4%)</text>
<rect x="320" y="108" width="14" height="14" fill="#f08e3b"/><text x="342" y="120" font-size="13" fill="#222">self-mgmt — 40 (38.8%)</text>
<rect x="320" y="136" width="14" height="14" fill="#52b788"/><text x="342" y="148" font-size="13" fill="#222">social-aware — 9 (8.7%)</text>
<rect x="320" y="164" width="14" height="14" fill="#d36bd6"/><text x="342" y="176" font-size="13" fill="#222">rel-skills — 28 (27.2%)</text>
<rect x="320" y="192" width="14" height="14" fill="#e9c46a"/><text x="342" y="204" font-size="13" fill="#222">resp-decide — 7 (6.8%)</text>
</svg>