<svg xmlns="http://www.w3.org/2000/svg" viewBox="0 0 540 320" font-family="-apple-system, BlinkMacSystemFont, Segoe UI, sans-serif">
<text x="270" y="28" text-anchor="middle" font-size="16" font-weight="600">Signal Type Distribution</text>
<path d="M 160 175 L 160.00 55.00 A 120 120 0 1 1 117.90 287.37 Z" fill="#5b8def" stroke="white" stroke-width="2"/>
<path d="M 160 175 L 117.90 287.37 A 120 120 0 0 1 56.93 236.45 Z" fill="#f08e3b" stroke="white" stroke-width="2"/>
<path d="M 160 175 L 56.93 236.45 A 120 120 0 0 1 49.01 129.37 Z" fill="#52b788" stroke="white" stroke-width="2"/>
<path d="M 160 175 L 49.01 129.37 A 120 120 0 0 1 160.00 55.00 Z" fill="#d36bd6" stroke="white" stroke-width="2"/>
<rect x="320" y="80" width="14" height="14" fill="#5b8def"/><text x="342" y="92" font-size="13" fill="#222">behavioral evidence — 83 (55.7%)</text>
<rect x="320" y="108" width="14" height="14" fill="#f08e3b"/><text x="342" y="120" font-size="13" fill="#222">emotional indicator — 16 (10.7%)</text>
<rect x="320" y="136" width="14" height="14" fill="#52b788"/><text x="342" y="148" font-size="13" fill="#222">context marker — 22 (14.8%)</text>
<rect x="320" y="164" width="14" height="14" fill="#d36bd6"/><text x="342" y="176" font-size="13" fill="#222">concern flag — 28 (18.8%)</text>
</svg>